<svg width="34" height="35" viewBox="0 0 34 35" fill="none" xmlns="http://www.w3.org/2000/svg">
<circle cx="17" cy="17.5" r="17" fill="#A9EAC5"/>
<path d="M17 27.5C22.5228 27.5 27 23.0228 27 17.5C27 11.9772 22.5228 7.5 17 7.5C11.4772 7.5 7 11.9772 7 17.5C7 23.0228 11.4772 27.5 17 27.5Z" stroke="#208F4F" stroke-width="1.5"/>
<path d="M12.5 22.5C14.8317 20.0578 19.1432 19.9428 21.5 22.5M19.4951 15C19.4951 16.3807 18.3742 17.5 16.9915 17.5C15.6089 17.5 14.488 16.3807 14.488 15C14.488 13.6193 15.6089 12.5 16.9915 12.5C18.3742 12.5 19.4951 13.6193 19.4951 15Z" stroke="#208F4F" stroke-width="1.5" stroke-linecap="round"/>
</svg>
