<svg width="45" height="45" viewBox="0 0 45 45" fill="none" xmlns="http://www.w3.org/2000/svg">
<circle cx="22.5" cy="22.5" r="22.5" fill="#A9EAC5"/>
<path d="M35 34L11 12" stroke="#1C7C45" stroke-width="1.5" stroke-linecap="round" stroke-linejoin="round"/>
<path d="M29 20.8C29.7555 21.6434 30.2 22.676 30.2 23.7915C30.2 24.2799 30.1148 24.7523 29.9556 25.2" stroke="#1C7C45" stroke-width="1.5" stroke-linecap="round" stroke-linejoin="round"/>
<path d="M32.6001 18.6C34.1011 19.9524 35.0001 21.6747 35.0001 23.55C35.0001 25.108 34.3796 26.5603 33.3088 27.7828" stroke="#1C7C45" stroke-width="1.5" stroke-linecap="round" stroke-linejoin="round"/>
<path d="M25.4 25.2C25.4 28.6597 25.4 31.2844 24.2888 31.7149C23.1777 32.1455 21.87 30.9223 19.2544 28.4759C17.8999 27.209 17.1272 26.9284 15.2 26.9284C13.8655 26.9284 12.233 27.0905 11.4045 25.9307C11 25.3645 11 24.5764 11 23C11 21.4235 11 20.6354 11.4045 20.0692C12.233 18.9094 13.8655 19.0715 15.2 19.0715C16.5287 19.0715 17.4283 19.0825 18.152 18.556M25.4 20.25C25.4 16.7902 25.4312 14.7155 24.32 14.285C23.395 13.9266 22.4388 14.7144 20.6 16.4" stroke="#1C7C45" stroke-width="1.5" stroke-linecap="round" stroke-linejoin="round"/>
</svg>
