<svg width="48" height="48" viewBox="0 0 48 48" fill="none" xmlns="http://www.w3.org/2000/svg">
<circle cx="24" cy="24" r="24" fill="#208F4F"/>
<path d="M16 27.5C14.8954 27.5 14 26.6046 14 25.5C14 24.3954 14.8954 23.5 16 23.5" stroke="white" stroke-width="1.5" stroke-linecap="round" stroke-linejoin="round"/>
<path d="M32 27.5C33.1046 27.5 34 26.6046 34 25.5C34 24.3954 33.1046 23.5 32 23.5" stroke="white" stroke-width="1.5" stroke-linecap="round" stroke-linejoin="round"/>
<path d="M19 19V16" stroke="white" stroke-width="1.5" stroke-linejoin="round"/>
<path d="M29 19V16" stroke="white" stroke-width="1.5" stroke-linejoin="round"/>
<path d="M19 16C19.5523 16 20 15.5523 20 15C20 14.4477 19.5523 14 19 14C18.4477 14 18 14.4477 18 15C18 15.5523 18.4477 16 19 16Z" stroke="white" stroke-width="1.5" stroke-linejoin="round"/>
<path d="M29 16C29.5523 16 30 15.5523 30 15C30 14.4477 29.5523 14 29 14C28.4477 14 28 14.4477 28 15C28 15.5523 28.4477 16 29 16Z" stroke="white" stroke-width="1.5" stroke-linejoin="round"/>
<path d="M25.5 19H22.5C19.6716 19 18.2574 19 17.3787 19.909C16.5 20.818 16.5 22.2809 16.5 25.2069C16.5 28.1329 16.5 29.5958 17.3787 30.5048C18.2574 31.4138 19.6716 31.4138 22.5 31.4138H23.5253C24.3169 31.4138 24.5962 31.5773 25.1417 32.1713C25.745 32.8283 26.6791 33.705 27.5242 33.9091C28.7254 34.1994 28.8599 33.7979 28.5919 32.6531C28.5156 32.327 28.3252 31.8056 28.526 31.5018C28.6385 31.3316 28.8259 31.2898 29.2008 31.2061C29.7922 31.074 30.2798 30.8581 30.6213 30.5048C31.5 29.5958 31.5 28.1329 31.5 25.2069C31.5 22.2809 31.5 20.818 30.6213 19.909C29.7426 19 28.3284 19 25.5 19Z" stroke="white" stroke-width="1.5" stroke-linejoin="round"/>
<path d="M21.5 27C22.0701 27.6072 22.9777 28 24 28C25.0223 28 25.9299 27.6072 26.5 27" stroke="white" stroke-width="1.5" stroke-linecap="round" stroke-linejoin="round"/>
<path d="M21.009 23H21" stroke="white" stroke-width="2" stroke-linecap="round" stroke-linejoin="round"/>
<path d="M27.009 23H27" stroke="white" stroke-width="2" stroke-linecap="round" stroke-linejoin="round"/>
</svg>
