<svg width="34" height="35" viewBox="0 0 34 35" fill="none" xmlns="http://www.w3.org/2000/svg">
<circle cx="17" cy="17.5" r="17" fill="#A9EAC5"/>
<path d="M17 27.5C22.5228 27.5 27 23.0228 27 17.5C27 11.9772 22.5228 7.5 17 7.5C11.4772 7.5 7 11.9772 7 17.5C7 23.0228 11.4772 27.5 17 27.5Z" stroke="#208F4F" stroke-width="1.5"/>
<path d="M12 13.8793H16.5M16.5 13.8793H19.5M16.5 13.8793V12.5M22 13.8793H19.5M19.5 13.8793C18.9725 15.7656 17.8679 17.5487 16.6071 19.1158M16.6071 19.1158C15.5631 20.4134 14.4121 21.5628 13.3929 22.5M16.6071 19.1158C15.9643 18.3621 15.0643 17.1426 14.8071 16.5909M16.6071 19.1158L18.5357 21.1207" stroke="#208F4F" stroke-width="1.5" stroke-linecap="round" stroke-linejoin="round"/>
</svg>
