<svg width="34" height="35" viewBox="0 0 34 35" fill="none" xmlns="http://www.w3.org/2000/svg">
<circle cx="17" cy="17.5" r="17" fill="#A9EAC5"/>
<path d="M20 23.125C19.9264 24.9769 18.3831 26.5494 16.3156 26.4988C15.8346 26.487 15.2401 26.3194 14.0511 25.984C11.1896 25.1768 8.70555 23.8203 8.10956 20.7815C8 20.223 8 19.5944 8 18.3373V16.6627C8 15.4056 8 14.777 8.10956 14.2185C8.70555 11.1796 11.1896 9.82316 14.0511 9.01603C15.2401 8.68064 15.8346 8.51295 16.3156 8.50119C18.3831 8.45061 19.9264 10.0231 20 11.875" stroke="#208F4F" stroke-width="1.5" stroke-linecap="round"/>
<path d="M26 17.5H15M26 17.5C26 16.7998 24.0057 15.4915 23.5 15M26 17.5C26 18.2002 24.0057 19.5085 23.5 20" stroke="#208F4F" stroke-width="1.5" stroke-linecap="round" stroke-linejoin="round"/>
</svg>
