<svg width="272" height="109" viewBox="0 0 272 109" fill="none" xmlns="http://www.w3.org/2000/svg">
<path d="M137.176 25.9393C124.942 18.593 130.466 6.97444 135.951 1.54841C136.168 1.33337 136.528 1.49134 136.528 1.7971C136.528 1.92268 136.593 2.0368 136.699 2.10405C139.831 4.09011 143.528 11.0719 143.528 15C143.528 19.9714 140.748 23.2031 139.072 24.9249C138.56 25.4508 137.892 25.8046 137.176 25.9393Z" fill="white"/>
<path d="M141.851 42.6031C146.212 40.4231 153.801 34.9549 155.028 32.5C156.199 30.1587 155.561 23.8204 155.065 20.7265L152.028 23C149.374 24.9299 144.748 28.3087 142.243 30.1802C141.099 31.0345 140.231 32.1847 139.939 33.582C139.347 36.4118 139.395 39.5404 139.528 41C139.528 42.3087 140.68 43.1883 141.851 42.6031Z" fill="white"/>
<path d="M122.846 23.1824C120.639 21.957 117.952 20.6915 116.309 20C116.967 20.2871 117.308 21.0137 117.25 21.7292C116.893 26.0758 119.501 33.3907 121.468 36.2803C121.807 36.7799 122.158 37.2891 122.601 37.6992C124.161 39.1401 128.434 41.805 130.779 43.1046C131.435 43.468 133.539 43.5 134.289 43.5C134.807 43.5 135.185 43.0126 135.058 42.5112L133.686 37.1211C133.585 36.7259 133.542 36.3192 133.499 35.9135L133.493 35.8605C133.247 33.5484 131.714 31.2162 129.947 29.2468C127.951 27.0228 125.459 24.633 122.846 23.1824Z" fill="white"/>
<path d="M137.278 26C124.911 18.6572 130.451 6.98941 135.951 1.54841C136.168 1.33337 136.528 1.49134 136.528 1.7971V1.7971C136.528 1.92268 136.593 2.0368 136.699 2.10405C139.831 4.09011 143.528 11.0719 143.528 15C143.528 19.9714 140.748 23.2031 139.072 24.9249C138.408 25.6073 137.48 26 136.528 26V26M155.028 20.5C155.04 20.5734 155.053 20.6489 155.065 20.7265M155.065 20.7265C155.561 23.8204 156.199 30.1587 155.028 32.5C153.801 34.9549 146.212 40.4231 141.851 42.6031C140.68 43.1883 139.528 42.3087 139.528 41V41C139.395 39.5404 139.347 36.4118 139.939 33.582C140.231 32.1847 141.099 31.0345 142.243 30.1802C144.748 28.3087 149.374 24.9299 152.028 23L155.065 20.7265ZM116.309 20C117.952 20.6915 120.639 21.957 122.846 23.1824C125.459 24.633 127.951 27.0228 129.947 29.2468C131.714 31.2162 133.247 33.5484 133.493 35.8605C133.539 36.2837 133.581 36.7086 133.686 37.1211L135.058 42.5112C135.185 43.0126 134.807 43.5 134.289 43.5V43.5C133.539 43.5 131.435 43.468 130.779 43.1046C128.434 41.8051 124.161 39.1401 122.601 37.6992C122.158 37.2891 121.807 36.7799 121.468 36.2803C119.501 33.3907 116.893 26.0758 117.25 21.7292C117.308 21.0137 116.967 20.2871 116.309 20V20Z" stroke="white"/>
<path d="M57.656 73.8565V51.4565H68.6C71.416 51.4565 73.528 51.9898 74.936 53.0565C76.3653 54.1232 77.08 55.5312 77.08 57.2805C77.08 58.4538 76.792 59.4778 76.216 60.3525C75.64 61.2058 74.8507 61.8672 73.848 62.3365C72.8453 62.8058 71.6933 63.0405 70.392 63.0405L71 61.7285C72.408 61.7285 73.656 61.9632 74.744 62.4325C75.832 62.8805 76.6747 63.5525 77.272 64.4485C77.8907 65.3445 78.2 66.4432 78.2 67.7445C78.2 69.6645 77.4427 71.1685 75.928 72.2565C74.4133 73.3232 72.184 73.8565 69.24 73.8565H57.656ZM62.808 69.9525H68.856C70.2 69.9525 71.2133 69.7392 71.896 69.3125C72.6 68.8645 72.952 68.1605 72.952 67.2005C72.952 66.2618 72.6 65.5685 71.896 65.1205C71.2133 64.6512 70.2 64.4165 68.856 64.4165H62.424V60.6405H67.96C69.2187 60.6405 70.1787 60.4272 70.84 60.0005C71.5227 59.5525 71.864 58.8805 71.864 57.9845C71.864 57.1098 71.5227 56.4592 70.84 56.0325C70.1787 55.5845 69.2187 55.3605 67.96 55.3605H62.808V69.9525ZM81.7728 73.8565V50.1125H86.7648V73.8565H81.7728ZM99.5898 74.1125C97.7551 74.1125 96.1231 73.7285 94.6938 72.9605C93.2858 72.1925 92.1658 71.1472 91.3338 69.8245C90.5231 68.4805 90.1178 66.9552 90.1178 65.2485C90.1178 63.5205 90.5231 61.9952 91.3338 60.6725C92.1658 59.3285 93.2858 58.2832 94.6938 57.5365C96.1231 56.7685 97.7551 56.3845 99.5898 56.3845C101.403 56.3845 103.024 56.7685 104.454 57.5365C105.883 58.2832 107.003 59.3178 107.814 60.6405C108.624 61.9632 109.03 63.4992 109.03 65.2485C109.03 66.9552 108.624 68.4805 107.814 69.8245C107.003 71.1472 105.883 72.1925 104.454 72.9605C103.024 73.7285 101.403 74.1125 99.5898 74.1125ZM99.5898 70.0165C100.422 70.0165 101.168 69.8245 101.83 69.4405C102.491 69.0565 103.014 68.5125 103.398 67.8085C103.782 67.0832 103.974 66.2298 103.974 65.2485C103.974 64.2458 103.782 63.3925 103.398 62.6885C103.014 61.9845 102.491 61.4405 101.83 61.0565C101.168 60.6725 100.422 60.4805 99.5898 60.4805C98.7578 60.4805 98.0111 60.6725 97.3498 61.0565C96.6884 61.4405 96.1551 61.9845 95.7498 62.6885C95.3658 63.3925 95.1738 64.2458 95.1738 65.2485C95.1738 66.2298 95.3658 67.0832 95.7498 67.8085C96.1551 68.5125 96.6884 69.0565 97.3498 69.4405C98.0111 69.8245 98.7578 70.0165 99.5898 70.0165ZM120.559 74.1125C118.724 74.1125 117.092 73.7285 115.663 72.9605C114.255 72.1925 113.135 71.1472 112.303 69.8245C111.492 68.4805 111.087 66.9552 111.087 65.2485C111.087 63.5205 111.492 61.9952 112.303 60.6725C113.135 59.3285 114.255 58.2832 115.663 57.5365C117.092 56.7685 118.724 56.3845 120.559 56.3845C122.372 56.3845 123.993 56.7685 125.423 57.5365C126.852 58.2832 127.972 59.3178 128.783 60.6405C129.593 61.9632 129.999 63.4992 129.999 65.2485C129.999 66.9552 129.593 68.4805 128.783 69.8245C127.972 71.1472 126.852 72.1925 125.423 72.9605C123.993 73.7285 122.372 74.1125 120.559 74.1125ZM120.559 70.0165C121.391 70.0165 122.137 69.8245 122.799 69.4405C123.46 69.0565 123.983 68.5125 124.367 67.8085C124.751 67.0832 124.943 66.2298 124.943 65.2485C124.943 64.2458 124.751 63.3925 124.367 62.6885C123.983 61.9845 123.46 61.4405 122.799 61.0565C122.137 60.6725 121.391 60.4805 120.559 60.4805C119.727 60.4805 118.98 60.6725 118.319 61.0565C117.657 61.4405 117.124 61.9845 116.719 62.6885C116.335 63.3925 116.143 64.2458 116.143 65.2485C116.143 66.2298 116.335 67.0832 116.719 67.8085C117.124 68.5125 117.657 69.0565 118.319 69.4405C118.98 69.8245 119.727 70.0165 120.559 70.0165ZM155.383 56.3845C156.749 56.3845 157.954 56.6618 158.999 57.2165C160.066 57.7498 160.898 58.5818 161.495 59.7125C162.114 60.8218 162.423 62.2512 162.423 64.0005V73.8565H157.431V64.7685C157.431 63.3818 157.143 62.3578 156.567 61.6965C155.991 61.0352 155.181 60.7045 154.135 60.7045C153.41 60.7045 152.759 60.8752 152.183 61.2165C151.607 61.5365 151.159 62.0272 150.839 62.6885C150.519 63.3498 150.359 64.1925 150.359 65.2165V73.8565H145.367V64.7685C145.367 63.3818 145.079 62.3578 144.503 61.6965C143.949 61.0352 143.149 60.7045 142.103 60.7045C141.378 60.7045 140.727 60.8752 140.151 61.2165C139.575 61.5365 139.127 62.0272 138.807 62.6885C138.487 63.3498 138.327 64.1925 138.327 65.2165V73.8565H133.335V56.6405H138.103V61.3445L137.207 59.9685C137.805 58.7952 138.647 57.9098 139.735 57.3125C140.845 56.6938 142.103 56.3845 143.511 56.3845C145.09 56.3845 146.466 56.7898 147.639 57.6005C148.834 58.3898 149.623 59.6058 150.007 61.2485L148.247 60.7685C148.823 59.4245 149.741 58.3578 150.999 57.5685C152.279 56.7792 153.741 56.3845 155.383 56.3845ZM172.69 74.1125C171.218 74.1125 169.799 73.9418 168.434 73.6005C167.09 73.2378 166.023 72.7898 165.234 72.2565L166.898 68.6725C167.687 69.1632 168.615 69.5685 169.682 69.8885C170.77 70.1872 171.836 70.3365 172.882 70.3365C174.034 70.3365 174.844 70.1978 175.314 69.9205C175.804 69.6432 176.05 69.2592 176.05 68.7685C176.05 68.3632 175.858 68.0645 175.474 67.8725C175.111 67.6592 174.62 67.4992 174.002 67.3925C173.383 67.2858 172.7 67.1792 171.954 67.0725C171.228 66.9658 170.492 66.8272 169.746 66.6565C168.999 66.4645 168.316 66.1872 167.698 65.8245C167.079 65.4618 166.578 64.9712 166.194 64.3525C165.831 63.7338 165.65 62.9338 165.65 61.9525C165.65 60.8645 165.959 59.9045 166.578 59.0725C167.218 58.2405 168.135 57.5898 169.33 57.1205C170.524 56.6298 171.954 56.3845 173.618 56.3845C174.791 56.3845 175.986 56.5125 177.202 56.7685C178.418 57.0245 179.431 57.3978 180.242 57.8885L178.578 61.4405C177.746 60.9498 176.903 60.6192 176.05 60.4485C175.218 60.2565 174.407 60.1605 173.618 60.1605C172.508 60.1605 171.698 60.3098 171.186 60.6085C170.674 60.9072 170.418 61.2912 170.418 61.7605C170.418 62.1872 170.599 62.5072 170.962 62.7205C171.346 62.9338 171.847 63.1045 172.466 63.2325C173.084 63.3605 173.756 63.4778 174.482 63.5845C175.228 63.6698 175.975 63.8085 176.722 64.0005C177.468 64.1925 178.14 64.4698 178.738 64.8325C179.356 65.1738 179.858 65.6538 180.242 66.2725C180.626 66.8698 180.818 67.6592 180.818 68.6405C180.818 69.7072 180.498 70.6565 179.858 71.4885C179.218 72.2992 178.29 72.9392 177.074 73.4085C175.879 73.8778 174.418 74.1125 172.69 74.1125ZM181.306 73.8565L191.29 51.4565H196.41L206.426 73.8565H200.986L192.794 54.0805H194.842L186.618 73.8565H181.306ZM186.298 69.0565L187.674 65.1205H199.194L200.602 69.0565H186.298ZM208.75 73.8565V51.4565H213.934V73.8565H208.75Z" fill="white"/>
<path d="M4.496 104.857V100.697L4.768 101.433L0.016 93.6565H1.28L5.456 100.489H4.784L8.96 93.6565H10.144L5.392 101.433L5.664 100.697V104.857H4.496ZM14.2111 104.937C13.4005 104.937 12.6698 104.755 12.0191 104.393C11.3791 104.019 10.8725 103.513 10.4991 102.873C10.1258 102.222 9.93913 101.481 9.93913 100.649C9.93913 99.8058 10.1258 99.0645 10.4991 98.4245C10.8725 97.7845 11.3791 97.2832 12.0191 96.9205C12.6591 96.5578 13.3898 96.3765 14.2111 96.3765C15.0431 96.3765 15.7791 96.5578 16.4191 96.9205C17.0698 97.2832 17.5765 97.7845 17.9391 98.4245C18.3125 99.0645 18.4991 99.8058 18.4991 100.649C18.4991 101.481 18.3125 102.222 17.9391 102.873C17.5765 103.513 17.0698 104.019 16.4191 104.393C15.7685 104.755 15.0325 104.937 14.2111 104.937ZM14.2111 103.929C14.8191 103.929 15.3578 103.795 15.8271 103.529C16.2965 103.251 16.6645 102.867 16.9311 102.377C17.2085 101.875 17.3471 101.299 17.3471 100.649C17.3471 99.9872 17.2085 99.4112 16.9311 98.9205C16.6645 98.4298 16.2965 98.0512 15.8271 97.7845C15.3578 97.5072 14.8245 97.3685 14.2271 97.3685C13.6298 97.3685 13.0965 97.5072 12.6271 97.7845C12.1578 98.0512 11.7845 98.4298 11.5071 98.9205C11.2298 99.4112 11.0911 99.9872 11.0911 100.649C11.0911 101.299 11.2298 101.875 11.5071 102.377C11.7845 102.867 12.1578 103.251 12.6271 103.529C13.0965 103.795 13.6245 103.929 14.2111 103.929ZM24.2904 104.937C23.5757 104.937 22.9517 104.803 22.4184 104.537C21.885 104.27 21.469 103.87 21.1704 103.337C20.8824 102.803 20.7384 102.137 20.7384 101.337V96.4565H21.8744V101.209C21.8744 102.105 22.093 102.782 22.5304 103.241C22.9784 103.689 23.6024 103.913 24.4024 103.913C24.989 103.913 25.4957 103.795 25.9224 103.561C26.3597 103.315 26.6904 102.963 26.9144 102.505C27.149 102.046 27.2664 101.497 27.2664 100.857V96.4565H28.4024V104.857H27.3144V102.553L27.4904 102.969C27.2237 103.587 26.8077 104.073 26.2424 104.425C25.6877 104.766 25.037 104.937 24.2904 104.937ZM31.5684 104.857V96.4565H32.6564V98.7445L32.5444 98.3445C32.779 97.7045 33.1737 97.2192 33.7284 96.8885C34.283 96.5472 34.971 96.3765 35.7924 96.3765V97.4805C35.7497 97.4805 35.707 97.4805 35.6644 97.4805C35.6217 97.4698 35.579 97.4645 35.5364 97.4645C34.651 97.4645 33.9577 97.7365 33.4564 98.2805C32.955 98.8138 32.7044 99.5765 32.7044 100.569V104.857H31.5684ZM40.6258 104.857L45.7458 93.6565H46.9138L52.0338 104.857H50.7858L46.0818 94.3445H46.5618L41.8578 104.857H40.6258ZM42.6418 101.865L42.9938 100.905H49.5058L49.8578 101.865H42.6418ZM53.8865 104.857V93.6565H55.0705V104.857H53.8865ZM66.9981 104.937C66.2728 104.937 65.6168 104.771 65.0301 104.441C64.4435 104.099 63.9741 103.614 63.6221 102.985C63.2808 102.345 63.1101 101.566 63.1101 100.649C63.1101 99.7312 63.2808 98.9578 63.6221 98.3285C63.9635 97.6885 64.4275 97.2032 65.0141 96.8725C65.6008 96.5418 66.2621 96.3765 66.9981 96.3765C67.7981 96.3765 68.5128 96.5578 69.1421 96.9205C69.7821 97.2725 70.2835 97.7738 70.6461 98.4245C71.0088 99.0645 71.1901 99.8058 71.1901 100.649C71.1901 101.502 71.0088 102.249 70.6461 102.889C70.2835 103.529 69.7821 104.03 69.1421 104.393C68.5128 104.755 67.7981 104.937 66.9981 104.937ZM62.6621 107.961V96.4565H63.7501V98.9845L63.6381 100.665L63.7981 102.361V107.961H62.6621ZM66.9181 103.929C67.5155 103.929 68.0488 103.795 68.5181 103.529C68.9875 103.251 69.3608 102.867 69.6381 102.377C69.9155 101.875 70.0541 101.299 70.0541 100.649C70.0541 99.9978 69.9155 99.4272 69.6381 98.9365C69.3608 98.4458 68.9875 98.0618 68.5181 97.7845C68.0488 97.5072 67.5155 97.3685 66.9181 97.3685C66.3208 97.3685 65.7821 97.5072 65.3021 97.7845C64.8328 98.0618 64.4595 98.4458 64.1821 98.9365C63.9155 99.4272 63.7821 99.9978 63.7821 100.649C63.7821 101.299 63.9155 101.875 64.1821 102.377C64.4595 102.867 64.8328 103.251 65.3021 103.529C65.7821 103.795 66.3208 103.929 66.9181 103.929ZM78.723 104.857V103.001L78.675 102.697V99.5925C78.675 98.8778 78.4723 98.3285 78.067 97.9445C77.6723 97.5605 77.0803 97.3685 76.291 97.3685C75.747 97.3685 75.2297 97.4592 74.739 97.6405C74.2483 97.8218 73.8323 98.0618 73.491 98.3605L72.979 97.5125C73.4057 97.1498 73.9177 96.8725 74.515 96.6805C75.1123 96.4778 75.7417 96.3765 76.403 96.3765C77.491 96.3765 78.3283 96.6485 78.915 97.1925C79.5123 97.7258 79.811 98.5418 79.811 99.6405V104.857H78.723ZM75.827 104.937C75.1977 104.937 74.6483 104.835 74.179 104.633C73.7203 104.419 73.3683 104.131 73.123 103.769C72.8777 103.395 72.755 102.969 72.755 102.489C72.755 102.051 72.8563 101.657 73.059 101.305C73.2723 100.942 73.6137 100.654 74.083 100.441C74.563 100.217 75.203 100.105 76.003 100.105H78.899V100.953H76.035C75.2243 100.953 74.659 101.097 74.339 101.385C74.0297 101.673 73.875 102.03 73.875 102.457C73.875 102.937 74.0617 103.321 74.435 103.609C74.8083 103.897 75.331 104.041 76.003 104.041C76.643 104.041 77.1923 103.897 77.651 103.609C78.1203 103.31 78.4617 102.883 78.675 102.329L78.931 103.113C78.7177 103.667 78.3443 104.11 77.811 104.441C77.2883 104.771 76.627 104.937 75.827 104.937ZM82.8965 104.857V96.4565H83.9845V98.7445L83.8725 98.3445C84.1072 97.7045 84.5018 97.2192 85.0565 96.8885C85.6112 96.5472 86.2992 96.3765 87.1205 96.3765V97.4805C87.0778 97.4805 87.0352 97.4805 86.9925 97.4805C86.9498 97.4698 86.9072 97.4645 86.8645 97.4645C85.9792 97.4645 85.2858 97.7365 84.7845 98.2805C84.2832 98.8138 84.0325 99.5765 84.0325 100.569V104.857H82.8965ZM92.2088 104.937C91.4194 104.937 90.8114 104.723 90.3848 104.297C89.9581 103.87 89.7448 103.267 89.7448 102.489V94.6005H90.8808V102.425C90.8808 102.915 91.0034 103.294 91.2488 103.561C91.5048 103.827 91.8674 103.961 92.3368 103.961C92.8381 103.961 93.2541 103.817 93.5848 103.529L93.9848 104.345C93.7608 104.547 93.4888 104.697 93.1688 104.793C92.8594 104.889 92.5394 104.937 92.2088 104.937ZM88.2408 97.4005V96.4565H93.4408V97.4005H88.2408ZM100.341 96.3765C101.023 96.3765 101.621 96.5098 102.133 96.7765C102.655 97.0325 103.061 97.4272 103.349 97.9605C103.647 98.4938 103.797 99.1658 103.797 99.9765V104.857H102.661V100.089C102.661 99.2032 102.437 98.5365 101.989 98.0885C101.551 97.6298 100.933 97.4005 100.133 97.4005C99.5354 97.4005 99.0128 97.5232 98.5648 97.7685C98.1274 98.0032 97.7861 98.3498 97.5408 98.8085C97.3061 99.2565 97.1888 99.8005 97.1888 100.441V104.857H96.0528V96.4565H97.1408V98.7605L96.9648 98.3285C97.2314 97.7205 97.6581 97.2458 98.2448 96.9045C98.8314 96.5525 99.5301 96.3765 100.341 96.3765ZM110.433 104.937C109.559 104.937 108.791 104.755 108.129 104.393C107.468 104.019 106.951 103.513 106.577 102.873C106.204 102.222 106.017 101.481 106.017 100.649C106.017 99.8165 106.193 99.0805 106.545 98.4405C106.908 97.8005 107.399 97.2992 108.017 96.9365C108.647 96.5632 109.351 96.3765 110.129 96.3765C110.919 96.3765 111.617 96.5578 112.225 96.9205C112.844 97.2725 113.329 97.7738 113.681 98.4245C114.033 99.0645 114.209 99.8058 114.209 100.649C114.209 100.702 114.204 100.761 114.193 100.825C114.193 100.878 114.193 100.937 114.193 101.001H106.881V100.153H113.585L113.137 100.489C113.137 99.8805 113.004 99.3418 112.737 98.8725C112.481 98.3925 112.129 98.0192 111.681 97.7525C111.233 97.4858 110.716 97.3525 110.129 97.3525C109.553 97.3525 109.036 97.4858 108.577 97.7525C108.119 98.0192 107.761 98.3925 107.505 98.8725C107.249 99.3525 107.121 99.9018 107.121 100.521V100.697C107.121 101.337 107.26 101.902 107.537 102.393C107.825 102.873 108.22 103.251 108.721 103.529C109.233 103.795 109.815 103.929 110.465 103.929C110.977 103.929 111.452 103.838 111.889 103.657C112.337 103.475 112.721 103.198 113.041 102.825L113.681 103.561C113.308 104.009 112.839 104.35 112.273 104.585C111.719 104.819 111.105 104.937 110.433 104.937ZM116.522 104.857V96.4565H117.61V98.7445L117.498 98.3445C117.732 97.7045 118.127 97.2192 118.682 96.8885C119.236 96.5472 119.924 96.3765 120.746 96.3765V97.4805C120.703 97.4805 120.66 97.4805 120.618 97.4805C120.575 97.4698 120.532 97.4645 120.49 97.4645C119.604 97.4645 118.911 97.7365 118.41 98.2805C117.908 98.8138 117.658 99.5765 117.658 100.569V104.857H116.522ZM127.323 104.857V95.4005C127.323 94.6538 127.542 94.0512 127.979 93.5925C128.416 93.1338 129.046 92.9045 129.867 92.9045C130.187 92.9045 130.496 92.9472 130.795 93.0325C131.094 93.1178 131.344 93.2512 131.547 93.4325L131.163 94.2805C131.003 94.1418 130.816 94.0405 130.603 93.9765C130.39 93.9018 130.16 93.8645 129.915 93.8645C129.435 93.8645 129.067 93.9978 128.811 94.2645C128.555 94.5312 128.427 94.9258 128.427 95.4485V96.7285L128.459 97.2565V104.857H127.323ZM125.819 97.4005V96.4565H131.019V97.4005H125.819ZM135.836 104.937C135.025 104.937 134.295 104.755 133.644 104.393C133.004 104.019 132.497 103.513 132.124 102.873C131.751 102.222 131.564 101.481 131.564 100.649C131.564 99.8058 131.751 99.0645 132.124 98.4245C132.497 97.7845 133.004 97.2832 133.644 96.9205C134.284 96.5578 135.015 96.3765 135.836 96.3765C136.668 96.3765 137.404 96.5578 138.044 96.9205C138.695 97.2832 139.201 97.7845 139.564 98.4245C139.937 99.0645 140.124 99.8058 140.124 100.649C140.124 101.481 139.937 102.222 139.564 102.873C139.201 103.513 138.695 104.019 138.044 104.393C137.393 104.755 136.657 104.937 135.836 104.937ZM135.836 103.929C136.444 103.929 136.983 103.795 137.452 103.529C137.921 103.251 138.289 102.867 138.556 102.377C138.833 101.875 138.972 101.299 138.972 100.649C138.972 99.9872 138.833 99.4112 138.556 98.9205C138.289 98.4298 137.921 98.0512 137.452 97.7845C136.983 97.5072 136.449 97.3685 135.852 97.3685C135.255 97.3685 134.721 97.5072 134.252 97.7845C133.783 98.0512 133.409 98.4298 133.132 98.9205C132.855 99.4112 132.716 99.9872 132.716 100.649C132.716 101.299 132.855 101.875 133.132 102.377C133.409 102.867 133.783 103.251 134.252 103.529C134.721 103.795 135.249 103.929 135.836 103.929ZM142.443 104.857V96.4565H143.531V98.7445L143.419 98.3445C143.654 97.7045 144.049 97.2192 144.603 96.8885C145.158 96.5472 145.846 96.3765 146.667 96.3765V97.4805C146.625 97.4805 146.582 97.4805 146.539 97.4805C146.497 97.4698 146.454 97.4645 146.411 97.4645C145.526 97.4645 144.833 97.7365 144.331 98.2805C143.83 98.8138 143.579 99.5765 143.579 100.569V104.857H142.443ZM157.341 96.3765C158.023 96.3765 158.621 96.5098 159.133 96.7765C159.655 97.0325 160.061 97.4272 160.349 97.9605C160.647 98.4938 160.797 99.1658 160.797 99.9765V104.857H159.661V100.089C159.661 99.2032 159.437 98.5365 158.989 98.0885C158.551 97.6298 157.933 97.4005 157.133 97.4005C156.535 97.4005 156.013 97.5232 155.565 97.7685C155.127 98.0032 154.786 98.3498 154.541 98.8085C154.306 99.2565 154.189 99.8005 154.189 100.441V104.857H153.053V92.9845H154.189V98.7605L153.965 98.3285C154.231 97.7205 154.658 97.2458 155.245 96.9045C155.831 96.5525 156.53 96.3765 157.341 96.3765ZM167.433 104.937C166.559 104.937 165.791 104.755 165.129 104.393C164.468 104.019 163.951 103.513 163.577 102.873C163.204 102.222 163.017 101.481 163.017 100.649C163.017 99.8165 163.193 99.0805 163.545 98.4405C163.908 97.8005 164.399 97.2992 165.017 96.9365C165.647 96.5632 166.351 96.3765 167.129 96.3765C167.919 96.3765 168.617 96.5578 169.225 96.9205C169.844 97.2725 170.329 97.7738 170.681 98.4245C171.033 99.0645 171.209 99.8058 171.209 100.649C171.209 100.702 171.204 100.761 171.193 100.825C171.193 100.878 171.193 100.937 171.193 101.001H163.881V100.153H170.585L170.137 100.489C170.137 99.8805 170.004 99.3418 169.737 98.8725C169.481 98.3925 169.129 98.0192 168.681 97.7525C168.233 97.4858 167.716 97.3525 167.129 97.3525C166.553 97.3525 166.036 97.4858 165.577 97.7525C165.119 98.0192 164.761 98.3925 164.505 98.8725C164.249 99.3525 164.121 99.9018 164.121 100.521V100.697C164.121 101.337 164.26 101.902 164.537 102.393C164.825 102.873 165.22 103.251 165.721 103.529C166.233 103.795 166.815 103.929 167.465 103.929C167.977 103.929 168.452 103.838 168.889 103.657C169.337 103.475 169.721 103.198 170.041 102.825L170.681 103.561C170.308 104.009 169.839 104.35 169.273 104.585C168.719 104.819 168.105 104.937 167.433 104.937ZM178.551 104.857V103.001L178.503 102.697V99.5925C178.503 98.8778 178.3 98.3285 177.895 97.9445C177.5 97.5605 176.908 97.3685 176.119 97.3685C175.575 97.3685 175.058 97.4592 174.567 97.6405C174.076 97.8218 173.66 98.0618 173.319 98.3605L172.807 97.5125C173.234 97.1498 173.746 96.8725 174.343 96.6805C174.94 96.4778 175.57 96.3765 176.231 96.3765C177.319 96.3765 178.156 96.6485 178.743 97.1925C179.34 97.7258 179.639 98.5418 179.639 99.6405V104.857H178.551ZM175.655 104.937C175.026 104.937 174.476 104.835 174.007 104.633C173.548 104.419 173.196 104.131 172.951 103.769C172.706 103.395 172.583 102.969 172.583 102.489C172.583 102.051 172.684 101.657 172.887 101.305C173.1 100.942 173.442 100.654 173.911 100.441C174.391 100.217 175.031 100.105 175.831 100.105H178.727V100.953H175.863C175.052 100.953 174.487 101.097 174.167 101.385C173.858 101.673 173.703 102.03 173.703 102.457C173.703 102.937 173.89 103.321 174.263 103.609C174.636 103.897 175.159 104.041 175.831 104.041C176.471 104.041 177.02 103.897 177.479 103.609C177.948 103.31 178.29 102.883 178.503 102.329L178.759 103.113C178.546 103.667 178.172 104.11 177.639 104.441C177.116 104.771 176.455 104.937 175.655 104.937ZM182.725 104.857V92.9845H183.861V104.857H182.725ZM189.724 104.937C188.935 104.937 188.327 104.723 187.9 104.297C187.474 103.87 187.26 103.267 187.26 102.489V94.6005H188.396V102.425C188.396 102.915 188.519 103.294 188.764 103.561C189.02 103.827 189.383 103.961 189.852 103.961C190.354 103.961 190.77 103.817 191.1 103.529L191.5 104.345C191.276 104.547 191.004 104.697 190.684 104.793C190.375 104.889 190.055 104.937 189.724 104.937ZM185.756 97.4005V96.4565H190.956V97.4005H185.756ZM197.856 96.3765C198.539 96.3765 199.136 96.5098 199.648 96.7765C200.171 97.0325 200.576 97.4272 200.864 97.9605C201.163 98.4938 201.312 99.1658 201.312 99.9765V104.857H200.176V100.089C200.176 99.2032 199.952 98.5365 199.504 98.0885C199.067 97.6298 198.448 97.4005 197.648 97.4005C197.051 97.4005 196.528 97.5232 196.08 97.7685C195.643 98.0032 195.302 98.3498 195.056 98.8085C194.822 99.2565 194.704 99.8005 194.704 100.441V104.857H193.568V92.9845H194.704V98.7605L194.48 98.3285C194.747 97.7205 195.174 97.2458 195.76 96.9045C196.347 96.5525 197.046 96.3765 197.856 96.3765ZM204.381 104.857V96.4565H205.517V104.857H204.381ZM204.957 94.6005C204.722 94.6005 204.525 94.5205 204.365 94.3605C204.205 94.2005 204.125 94.0085 204.125 93.7845C204.125 93.5605 204.205 93.3738 204.365 93.2245C204.525 93.0645 204.722 92.9845 204.957 92.9845C205.192 92.9845 205.389 93.0592 205.549 93.2085C205.709 93.3578 205.789 93.5445 205.789 93.7685C205.789 94.0032 205.709 94.2005 205.549 94.3605C205.4 94.5205 205.202 94.6005 204.957 94.6005ZM212.246 104.937C211.371 104.937 210.603 104.755 209.942 104.393C209.28 104.019 208.763 103.513 208.39 102.873C208.016 102.222 207.83 101.481 207.83 100.649C207.83 99.8165 208.006 99.0805 208.358 98.4405C208.72 97.8005 209.211 97.2992 209.83 96.9365C210.459 96.5632 211.163 96.3765 211.942 96.3765C212.731 96.3765 213.43 96.5578 214.038 96.9205C214.656 97.2725 215.142 97.7738 215.494 98.4245C215.846 99.0645 216.022 99.8058 216.022 100.649C216.022 100.702 216.016 100.761 216.006 100.825C216.006 100.878 216.006 100.937 216.006 101.001H208.694V100.153H215.398L214.95 100.489C214.95 99.8805 214.816 99.3418 214.55 98.8725C214.294 98.3925 213.942 98.0192 213.494 97.7525C213.046 97.4858 212.528 97.3525 211.942 97.3525C211.366 97.3525 210.848 97.4858 210.39 97.7525C209.931 98.0192 209.574 98.3925 209.318 98.8725C209.062 99.3525 208.934 99.9018 208.934 100.521V100.697C208.934 101.337 209.072 101.902 209.35 102.393C209.638 102.873 210.032 103.251 210.534 103.529C211.046 103.795 211.627 103.929 212.278 103.929C212.79 103.929 213.264 103.838 213.702 103.657C214.15 103.475 214.534 103.198 214.854 102.825L215.494 103.561C215.12 104.009 214.651 104.35 214.086 104.585C213.531 104.819 212.918 104.937 212.246 104.937ZM218.334 104.857V96.4565H219.422V98.7445L219.31 98.3445C219.545 97.7045 219.939 97.2192 220.494 96.8885C221.049 96.5472 221.737 96.3765 222.558 96.3765V97.4805C222.515 97.4805 222.473 97.4805 222.43 97.4805C222.387 97.4698 222.345 97.4645 222.302 97.4645C221.417 97.4645 220.723 97.7365 220.222 98.2805C219.721 98.8138 219.47 99.5765 219.47 100.569V104.857H218.334ZM232.431 104.937C231.599 104.937 230.853 104.755 230.191 104.393C229.541 104.019 229.029 103.513 228.655 102.873C228.282 102.222 228.095 101.481 228.095 100.649C228.095 99.8058 228.282 99.0645 228.655 98.4245C229.029 97.7845 229.541 97.2832 230.191 96.9205C230.853 96.5578 231.599 96.3765 232.431 96.3765C233.146 96.3765 233.791 96.5152 234.367 96.7925C234.943 97.0698 235.397 97.4858 235.727 98.0405L234.879 98.6165C234.591 98.1898 234.234 97.8752 233.807 97.6725C233.381 97.4698 232.917 97.3685 232.415 97.3685C231.818 97.3685 231.279 97.5072 230.799 97.7845C230.319 98.0512 229.941 98.4298 229.663 98.9205C229.386 99.4112 229.247 99.9872 229.247 100.649C229.247 101.31 229.386 101.886 229.663 102.377C229.941 102.867 230.319 103.251 230.799 103.529C231.279 103.795 231.818 103.929 232.415 103.929C232.917 103.929 233.381 103.827 233.807 103.625C234.234 103.422 234.591 103.113 234.879 102.697L235.727 103.273C235.397 103.817 234.943 104.233 234.367 104.521C233.791 104.798 233.146 104.937 232.431 104.937ZM237.959 104.857V96.4565H239.047V98.7445L238.935 98.3445C239.17 97.7045 239.564 97.2192 240.119 96.8885C240.674 96.5472 241.362 96.3765 242.183 96.3765V97.4805C242.14 97.4805 242.098 97.4805 242.055 97.4805C242.012 97.4698 241.97 97.4645 241.927 97.4645C241.042 97.4645 240.348 97.7365 239.847 98.2805C239.346 98.8138 239.095 99.5765 239.095 100.569V104.857H237.959ZM247.602 104.937C246.791 104.937 246.06 104.755 245.41 104.393C244.77 104.019 244.263 103.513 243.89 102.873C243.516 102.222 243.33 101.481 243.33 100.649C243.33 99.8058 243.516 99.0645 243.89 98.4245C244.263 97.7845 244.77 97.2832 245.41 96.9205C246.05 96.5578 246.78 96.3765 247.602 96.3765C248.434 96.3765 249.17 96.5578 249.81 96.9205C250.46 97.2832 250.967 97.7845 251.33 98.4245C251.703 99.0645 251.89 99.8058 251.89 100.649C251.89 101.481 251.703 102.222 251.33 102.873C250.967 103.513 250.46 104.019 249.81 104.393C249.159 104.755 248.423 104.937 247.602 104.937ZM247.602 103.929C248.21 103.929 248.748 103.795 249.218 103.529C249.687 103.251 250.055 102.867 250.322 102.377C250.599 101.875 250.738 101.299 250.738 100.649C250.738 99.9872 250.599 99.4112 250.322 98.9205C250.055 98.4298 249.687 98.0512 249.218 97.7845C248.748 97.5072 248.215 97.3685 247.618 97.3685C247.02 97.3685 246.487 97.5072 246.018 97.7845C245.548 98.0512 245.175 98.4298 244.898 98.9205C244.62 99.4112 244.482 99.9872 244.482 100.649C244.482 101.299 244.62 101.875 244.898 102.377C245.175 102.867 245.548 103.251 246.018 103.529C246.487 103.795 247.015 103.929 247.602 103.929ZM258.545 104.937C257.82 104.937 257.164 104.771 256.577 104.441C255.99 104.099 255.521 103.614 255.169 102.985C254.828 102.345 254.657 101.566 254.657 100.649C254.657 99.7312 254.828 98.9578 255.169 98.3285C255.51 97.6885 255.974 97.2032 256.561 96.8725C257.148 96.5418 257.809 96.3765 258.545 96.3765C259.345 96.3765 260.06 96.5578 260.689 96.9205C261.329 97.2725 261.83 97.7738 262.193 98.4245C262.556 99.0645 262.737 99.8058 262.737 100.649C262.737 101.502 262.556 102.249 262.193 102.889C261.83 103.529 261.329 104.03 260.689 104.393C260.06 104.755 259.345 104.937 258.545 104.937ZM254.209 107.961V96.4565H255.297V98.9845L255.185 100.665L255.345 102.361V107.961H254.209ZM258.465 103.929C259.062 103.929 259.596 103.795 260.065 103.529C260.534 103.251 260.908 102.867 261.185 102.377C261.462 101.875 261.601 101.299 261.601 100.649C261.601 99.9978 261.462 99.4272 261.185 98.9365C260.908 98.4458 260.534 98.0618 260.065 97.7845C259.596 97.5072 259.062 97.3685 258.465 97.3685C257.868 97.3685 257.329 97.5072 256.849 97.7845C256.38 98.0618 256.006 98.4458 255.729 98.9365C255.462 99.4272 255.329 99.9978 255.329 100.649C255.329 101.299 255.462 101.875 255.729 102.377C256.006 102.867 256.38 103.251 256.849 103.529C257.329 103.795 257.868 103.929 258.465 103.929ZM267.309 104.937C266.615 104.937 265.959 104.841 265.341 104.649C264.722 104.446 264.237 104.195 263.885 103.897L264.397 103.001C264.738 103.257 265.175 103.481 265.709 103.673C266.242 103.854 266.802 103.945 267.389 103.945C268.189 103.945 268.765 103.822 269.117 103.577C269.469 103.321 269.645 102.985 269.645 102.569C269.645 102.259 269.543 102.019 269.341 101.849C269.149 101.667 268.893 101.534 268.573 101.449C268.253 101.353 267.895 101.273 267.501 101.209C267.106 101.145 266.711 101.07 266.317 100.985C265.933 100.899 265.581 100.777 265.261 100.617C264.941 100.446 264.679 100.217 264.477 99.9285C264.285 99.6405 264.189 99.2565 264.189 98.7765C264.189 98.3178 264.317 97.9072 264.573 97.5445C264.829 97.1818 265.202 96.8992 265.693 96.6965C266.194 96.4832 266.802 96.3765 267.517 96.3765C268.061 96.3765 268.605 96.4512 269.149 96.6005C269.693 96.7392 270.141 96.9258 270.493 97.1605L269.997 98.0725C269.623 97.8165 269.223 97.6352 268.797 97.5285C268.37 97.4112 267.943 97.3525 267.517 97.3525C266.759 97.3525 266.199 97.4858 265.837 97.7525C265.485 98.0085 265.309 98.3392 265.309 98.7445C265.309 99.0645 265.405 99.3152 265.597 99.4965C265.799 99.6778 266.061 99.8218 266.381 99.9285C266.711 100.025 267.069 100.105 267.453 100.169C267.847 100.233 268.237 100.313 268.621 100.409C269.015 100.494 269.373 100.617 269.693 100.777C270.023 100.926 270.285 101.145 270.477 101.433C270.679 101.71 270.781 102.078 270.781 102.537C270.781 103.027 270.642 103.454 270.365 103.817C270.098 104.169 269.703 104.446 269.181 104.649C268.669 104.841 268.045 104.937 267.309 104.937Z" fill="white"/>
</svg>
