<svg width="34" height="35" viewBox="0 0 34 35" fill="none" xmlns="http://www.w3.org/2000/svg">
<circle cx="17" cy="17.5" r="17" fill="#A9EAC5"/>
<path d="M16.4706 27.5C12.4775 27.5 10.481 27.5 9.24049 26.3284C8 25.1569 8 23.2712 8 19.5V15.5C8 11.7288 8 9.84315 9.24049 8.67157C10.481 7.5 12.4775 7.5 16.4706 7.5H17.5294C21.5225 7.5 23.519 7.5 24.7595 8.67157C26 9.84315 26 11.7288 26 15.5M16.5 27.5H18" stroke="#208F4F" stroke-width="1.5" stroke-linecap="round"/>
<path d="M13 12.5H21" stroke="#208F4F" stroke-width="1.5" stroke-linecap="round"/>
<path d="M13 17.5H18" stroke="#208F4F" stroke-width="1.5" stroke-linecap="round"/>
<path d="M22.5 24.0896L21.5978 27.2428C21.5572 27.4011 21.7139 27.5385 21.8659 27.4778L23.8514 26.6849C23.9468 26.6468 24.0532 26.6468 24.1486 26.6849L26.1531 27.4854C26.3014 27.5446 26.456 27.4149 26.4231 27.2589L25.6589 23.9911M27 21.4951C27 19.841 25.6569 18.5 24 18.5C22.3431 18.5 21 19.841 21 21.4951C21 23.1493 22.3431 24.4902 24 24.4902C25.6569 24.4902 27 23.1493 27 21.4951Z" stroke="#208F4F" stroke-width="1.5" stroke-linejoin="round"/>
</svg>
