<svg width="231" height="34" viewBox="0 0 231 34" fill="none" xmlns="http://www.w3.org/2000/svg">
<path d="M20.2641 3.31068L23.0798 8.9886C23.4638 9.77899 24.4877 10.5371 25.3517 10.6823L30.455 11.5372C33.7187 12.0856 34.4867 14.473 32.1349 16.828L28.1673 20.8283C27.4953 21.5058 27.1275 22.8123 27.3353 23.748L28.4713 28.7C29.3672 32.6197 27.3033 34.136 23.8638 32.0874L19.0803 29.2323C18.2165 28.7162 16.7926 28.7162 15.9126 29.2323L11.1292 32.0874C7.70559 34.136 5.62584 32.6035 6.52174 28.7L7.65761 23.748C7.86558 22.8123 7.49763 21.5058 6.82569 20.8283L2.85814 16.828C0.522399 14.473 1.27432 12.0856 4.53795 11.5372L9.64139 10.6823C10.4893 10.5371 11.5132 9.77899 11.8971 8.9886L14.7128 3.31068C16.2486 0.229772 18.7443 0.229772 20.2641 3.31068Z" stroke="#F1C40F" stroke-width="2" stroke-linecap="round" stroke-linejoin="round"/>
<path d="M69.2641 3.31068L72.0798 8.9886C72.4638 9.77899 73.4877 10.5371 74.3517 10.6823L79.455 11.5372C82.7187 12.0856 83.4867 14.473 81.1349 16.828L77.1673 20.8283C76.4953 21.5058 76.1275 22.8123 76.3353 23.748L77.4713 28.7C78.3672 32.6197 76.3033 34.136 72.8638 32.0874L68.0803 29.2323C67.2165 28.7162 65.7926 28.7162 64.9126 29.2323L60.1292 32.0874C56.7056 34.136 54.6258 32.6035 55.5217 28.7L56.6576 23.748C56.8656 22.8123 56.4976 21.5058 55.8257 20.8283L51.8581 16.828C49.5224 14.473 50.2743 12.0856 53.5379 11.5372L58.6414 10.6823C59.4893 10.5371 60.5132 9.77899 60.8971 8.9886L63.7128 3.31068C65.2486 0.229772 67.7443 0.229772 69.2641 3.31068Z" stroke="#F1C40F" stroke-width="2" stroke-linecap="round" stroke-linejoin="round"/>
<path d="M118.264 3.31068L121.08 8.9886C121.464 9.77899 122.488 10.5371 123.352 10.6823L128.455 11.5372C131.719 12.0856 132.487 14.473 130.135 16.828L126.167 20.8283C125.495 21.5058 125.128 22.8123 125.335 23.748L126.471 28.7C127.367 32.6197 125.303 34.136 121.864 32.0874L117.08 29.2323C116.216 28.7162 114.793 28.7162 113.913 29.2323L109.129 32.0874C105.706 34.136 103.626 32.6035 104.522 28.7L105.658 23.748C105.866 22.8123 105.498 21.5058 104.826 20.8283L100.858 16.828C98.5224 14.473 99.2743 12.0856 102.538 11.5372L107.641 10.6823C108.489 10.5371 109.513 9.77899 109.897 8.9886L112.713 3.31068C114.249 0.229772 116.744 0.229772 118.264 3.31068Z" stroke="#F1C40F" stroke-width="2" stroke-linecap="round" stroke-linejoin="round"/>
<path d="M167.264 3.31068L170.08 8.9886C170.464 9.77899 171.488 10.5371 172.352 10.6823L177.455 11.5372C180.719 12.0856 181.487 14.473 179.135 16.828L175.167 20.8283C174.495 21.5058 174.128 22.8123 174.335 23.748L175.471 28.7C176.367 32.6197 174.303 34.136 170.864 32.0874L166.08 29.2323C165.216 28.7162 163.793 28.7162 162.913 29.2323L158.129 32.0874C154.706 34.136 152.626 32.6035 153.522 28.7L154.658 23.748C154.866 22.8123 154.498 21.5058 153.826 20.8283L149.858 16.828C147.522 14.473 148.274 12.0856 151.538 11.5372L156.641 10.6823C157.489 10.5371 158.513 9.77899 158.897 8.9886L161.713 3.31068C163.249 0.229772 165.744 0.229772 167.264 3.31068Z" stroke="#F1C40F" stroke-width="2" stroke-linecap="round" stroke-linejoin="round"/>
<path d="M216.264 3.31068L219.08 8.9886C219.464 9.77899 220.488 10.5371 221.352 10.6823L226.455 11.5372C229.719 12.0856 230.487 14.473 228.135 16.828L224.167 20.8283C223.495 21.5058 223.128 22.8123 223.335 23.748L224.471 28.7C225.367 32.6197 223.303 34.136 219.864 32.0874L215.08 29.2323C214.216 28.7162 212.793 28.7162 211.913 29.2323L207.129 32.0874C203.706 34.136 201.626 32.6035 202.522 28.7L203.658 23.748C203.866 22.8123 203.498 21.5058 202.826 20.8283L198.858 16.828C196.522 14.473 197.274 12.0856 200.538 11.5372L205.641 10.6823C206.489 10.5371 207.513 9.77899 207.897 8.9886L210.713 3.31068C212.249 0.229772 214.744 0.229772 216.264 3.31068Z" stroke="#F1C40F" stroke-width="2" stroke-linecap="round" stroke-linejoin="round"/>
</svg>
