<svg width="34" height="35" viewBox="0 0 34 35" fill="none" xmlns="http://www.w3.org/2000/svg">
<circle cx="17" cy="17.5" r="17" fill="#A9EAC5"/>
<path d="M18.7276 8.94418L20.4874 12.4929C20.7274 12.9869 21.3673 13.4607 21.9073 13.5514L25.0969 14.0857C27.1367 14.4285 27.6167 15.9206 26.1468 17.3925L23.6671 19.8927C23.2471 20.3161 23.0172 21.1327 23.1471 21.7175L23.8571 24.8125C24.417 27.2623 23.1271 28.21 20.9774 26.9296L17.9877 25.1452C17.4478 24.8226 16.5579 24.8226 16.0079 25.1452L13.0183 26.9296C10.8785 28.21 9.57865 27.2522 10.1386 24.8125L10.8485 21.7175C10.9785 21.1327 10.7485 20.3161 10.3286 19.8927L7.84884 17.3925C6.389 15.9206 6.85895 14.4285 8.89872 14.0857L12.0884 13.5514C12.6183 13.4607 13.2582 12.9869 13.4982 12.4929L15.258 8.94418C16.2179 7.01861 17.7777 7.01861 18.7276 8.94418Z" stroke="#208F4F" stroke-width="1.5" stroke-linecap="round" stroke-linejoin="round"/>
</svg>
