<svg width="60" height="60" viewBox="0 0 60 60" fill="none" xmlns="http://www.w3.org/2000/svg">
<circle cx="30" cy="30" r="29.5" fill="white" stroke="#208F4F"/>
<path d="M39.3333 23V37M37 20.6666H23M37 39.3333H23M20.6667 37V23" stroke="#208F4F" stroke-width="1.5" stroke-linecap="round" stroke-linejoin="round"/>
<path d="M41.6667 20.6667C41.6667 21.9554 40.622 23 39.3333 23C38.0446 23 37 21.9554 37 20.6667C37 19.378 38.0446 18.3334 39.3333 18.3334C40.622 18.3334 41.6667 19.378 41.6667 20.6667Z" stroke="#208F4F" stroke-width="1.5"/>
<path d="M23 20.6667C23 21.9554 21.9553 23 20.6667 23C19.378 23 18.3333 21.9554 18.3333 20.6667C18.3333 19.378 19.378 18.3334 20.6667 18.3334C21.9553 18.3334 23 19.378 23 20.6667Z" stroke="#208F4F" stroke-width="1.5"/>
<path d="M41.6667 39.3333C41.6667 40.622 40.622 41.6667 39.3333 41.6667C38.0446 41.6667 37 40.622 37 39.3333C37 38.0446 38.0446 37 39.3333 37C40.622 37 41.6667 38.0446 41.6667 39.3333Z" stroke="#208F4F" stroke-width="1.5"/>
<path d="M23 39.3333C23 40.622 21.9553 41.6667 20.6667 41.6667C19.378 41.6667 18.3333 40.622 18.3333 39.3333C18.3333 38.0446 19.378 37 20.6667 37C21.9553 37 23 38.0446 23 39.3333Z" stroke="#208F4F" stroke-width="1.5"/>
</svg>
