<svg width="61" height="60" viewBox="0 0 61 60" fill="none" xmlns="http://www.w3.org/2000/svg">
<circle cx="30.5" cy="30" r="29.5" fill="white" stroke="#208F4F"/>
<path d="M22.6043 34.4988C22.1628 33.5065 21.9167 32.4025 21.9167 31.2391C21.9167 26.9182 25.3118 23.4155 29.5 23.4155C33.6882 23.4155 37.0833 26.9182 37.0833 31.2391C37.0833 32.4025 36.8372 33.5065 36.3957 34.4988" stroke="#208F4F" stroke-width="1.5" stroke-linecap="round"/>
<path d="M29.5 19.3322V20.4988" stroke="#208F4F" stroke-width="1.5" stroke-linecap="round" stroke-linejoin="round"/>
<path d="M41.1667 30.9988H40" stroke="#208F4F" stroke-width="1.5" stroke-linecap="round" stroke-linejoin="round"/>
<path d="M19 30.9988H17.8333" stroke="#208F4F" stroke-width="1.5" stroke-linecap="round" stroke-linejoin="round"/>
<path d="M37.7488 22.749L36.9239 23.574" stroke="#208F4F" stroke-width="1.5" stroke-linecap="round" stroke-linejoin="round"/>
<path d="M22.0763 23.5751L21.2513 22.7501" stroke="#208F4F" stroke-width="1.5" stroke-linecap="round" stroke-linejoin="round"/>
<path d="M32.4365 39.5231C33.6153 39.1417 34.088 38.0628 34.221 36.9775C34.2607 36.6534 33.994 36.3844 33.6673 36.3844L25.3897 36.3846C25.0518 36.3847 24.7804 36.6714 24.8208 37.0069C24.951 38.0899 25.2798 38.8812 26.529 39.5231M32.4365 39.5231C32.4365 39.5231 26.7347 39.5231 26.529 39.5231M32.4365 39.5231C32.2947 41.7922 31.6394 42.6908 29.5079 42.6656C27.228 42.7077 26.7035 41.5969 26.529 39.5231" stroke="#208F4F" stroke-width="1.5" stroke-linecap="round" stroke-linejoin="round"/>
</svg>
