<svg width="60" height="60" viewBox="0 0 60 60" fill="none" xmlns="http://www.w3.org/2000/svg">
<circle cx="30" cy="30" r="29.5" fill="white" stroke="#208F4F"/>
<path d="M33.1667 20.5027C32.6182 20.5 32.0358 20.5 31.4167 20.5C26.1919 20.5 23.5796 20.5 21.9564 22.1231C20.3333 23.7462 20.3333 26.3586 20.3333 31.5833C20.3333 36.808 20.3333 39.4204 21.9564 41.0436C23.5796 42.6667 26.1919 42.6667 31.4167 42.6667C36.6414 42.6667 39.2538 42.6667 40.8769 41.0436C42.4384 39.482 42.4977 37.0048 42.4999 32.1667" stroke="#208F4F" stroke-width="1.5" stroke-linecap="round"/>
<path d="M20.3333 33.4913C21.0555 33.3864 21.7856 33.3346 22.517 33.3365C25.6109 33.2711 28.6291 34.2351 31.033 36.0566C33.2623 37.7458 34.8288 40.0707 35.5 42.6667" stroke="#208F4F" stroke-width="1.5" stroke-linejoin="round"/>
<path d="M42.5 36.7123C41.1287 36.0178 39.7103 35.6653 38.2839 35.6668C36.1236 35.6583 33.9851 36.4522 32 38" stroke="#208F4F" stroke-width="1.5" stroke-linejoin="round"/>
<path d="M37.8333 22.25C38.4068 21.6601 39.9331 19.3334 40.75 19.3334M40.75 19.3334C41.5669 19.3334 43.0933 21.6601 43.6667 22.25M40.75 19.3334V28.6667" stroke="#208F4F" stroke-width="1.5" stroke-linecap="round" stroke-linejoin="round"/>
</svg>
